<?xml version="1.0" encoding="UTF-8" standalone="no"?>
<svg
   xmlns:dc="http://purl.org/dc/elements/1.1/"
   xmlns:cc="http://creativecommons.org/ns#"
   xmlns:rdf="http://www.w3.org/1999/02/22-rdf-syntax-ns#"
   xmlns:svg="http://www.w3.org/2000/svg"
   xmlns="http://www.w3.org/2000/svg"
   viewBox="0 0 334.42133 91.9916"
   height="91.9916"
   width="334.42133"
   xml:space="preserve"
   id="svg29"
   version="1.1"><metadata
     id="metadata35"><rdf:RDF><cc:Work
         rdf:about=""><dc:format>image/svg+xml</dc:format><dc:type
           rdf:resource="http://purl.org/dc/dcmitype/StillImage" /><dc:title></dc:title></cc:Work></rdf:RDF></metadata><defs
     id="defs33"><clipPath
       id="clipPath45"
       clipPathUnits="userSpaceOnUse"><path
         id="path43"
         d="M 0,68.994 H 250.816 V 0 H 0 Z" /></clipPath></defs><g
     transform="matrix(1.3333333,0,0,-1.3333333,0,91.9916)"
     id="g37"><g
       id="g39"><g
         clip-path="url(#clipPath45)"
         id="g41"><g
           transform="translate(98.636,67.6903)"
           id="g47"><path
             id="path49"
             style="fill:#231f20;fill-opacity:1;fill-rule:nonzero;stroke:none"
             d="m 0,0 c 0,0.263 0.048,0.366 0.357,0.366 0.509,0 2.194,-0.158 6.182,-0.157 4.287,0 6.583,0.157 7.042,0.157 0.457,0 0.512,-0.157 0.512,-0.366 v -1.194 c 0,-0.259 -0.055,-0.468 -0.407,-0.468 h -2.453 c -1.426,0 -2.145,-0.47 -2.144,-1.352 0,-0.415 0.052,-1.039 0.204,-1.769 0.31,-1.871 2.196,-8.056 3.118,-10.97 0.608,-1.973 3.577,-10.915 4.748,-14.086 h 0.104 c 1.071,2.442 5.057,13.152 5.464,14.348 0.511,1.402 2.449,7.383 3.216,9.671 0.407,1.297 0.717,2.235 0.717,2.962 -0.004,0.626 -0.361,1.197 -1.634,1.197 h -1.331 c -0.204,0 -0.256,0.156 -0.256,0.468 v 1.195 c 0,0.261 0.052,0.366 0.307,0.366 0.462,0 2.808,-0.157 6.028,-0.157 3.725,0 5.004,0.157 5.462,0.157 0.308,0 0.358,-0.104 0.358,-0.366 v -1.3 c 0,-0.204 -0.05,-0.363 -0.358,-0.363 h -1.375 c -1.689,0 -2.657,-0.83 -3.627,-2.028 -1.326,-1.665 -5.415,-12.32 -6.281,-14.506 -0.615,-1.715 -7.201,-18.245 -7.46,-18.767 -0.199,-0.415 -0.455,-0.676 -0.713,-0.676 -0.407,0 -0.611,0.52 -0.869,1.194 -1.631,4.784 -5.77,16.637 -6.434,18.51 l -0.508,1.766 C 6.743,-12.476 4.341,-4.94 3.678,-3.378 3.163,-2.18 2.652,-1.665 1.58,-1.665 H 0.255 C 0.048,-1.665 0,-1.506 0,-1.299 Z" /></g><g
           transform="translate(130.6678,46.2213)"
           id="g51"><path
             id="path53"
             style="fill:#231f20;fill-opacity:1;fill-rule:nonzero;stroke:none"
             d="M 0,0 C 0,1.768 -0.306,2.702 -2.857,3.121 -3.22,3.172 -3.32,3.277 -3.32,3.484 v 0.468 c 0,0.156 0.1,0.258 0.359,0.367 1.633,0.623 3.575,1.454 5.515,2.543 0.408,0.208 0.666,0.311 0.97,0.311 0.252,0 0.307,-0.259 0.252,-0.622 -0.1,-0.882 -0.1,-4.158 -0.095,-8.475 V -7.59 c 0,-2.027 0,-3.899 0.047,-4.471 0.103,-0.984 0.257,-1.352 0.817,-1.352 h 2.349 c 0.408,0 0.513,-0.155 0.513,-0.465 v -0.884 c 0,-0.363 -0.105,-0.52 -0.458,-0.52 -0.407,0 -2.761,0.157 -4.903,0.157 -2.966,-0.002 -4.955,-0.161 -5.517,-0.161 -0.256,0 -0.409,0.109 -0.409,0.419 v 1.037 c 0,0.315 0.153,0.417 0.512,0.417 h 2.501 c 0.561,0 0.768,0.209 0.82,1.041 0.049,1.558 0.049,3.171 0.049,4.73 z" /></g><g
           transform="translate(129.5278,58.3736)"
           id="g55"><path
             id="path57"
             style="fill:#231f20;fill-opacity:1;fill-rule:nonzero;stroke:none"
             d="M 0,0 C 0,1.302 1.076,2.703 3.116,2.703 4.904,2.705 5.773,1.303 5.773,0.155 5.773,-1.193 4.854,-2.703 2.811,-2.703 1.686,-2.703 0,-1.664 0,0" /></g><g
           transform="translate(216.8034,46.2213)"
           id="g59"><path
             id="path61"
             style="fill:#231f20;fill-opacity:1;fill-rule:nonzero;stroke:none"
             d="M 0,0 C 0,1.768 -0.306,2.702 -2.862,3.121 -3.216,3.172 -3.32,3.277 -3.32,3.484 v 0.468 c 0,0.156 0.104,0.258 0.363,0.367 1.63,0.623 3.569,1.454 5.511,2.543 C 2.962,7.07 3.22,7.173 3.525,7.173 3.78,7.173 3.835,6.914 3.78,6.551 3.676,5.669 3.676,2.393 3.68,-1.924 V -7.59 c 0,-2.027 0,-3.899 0.049,-4.471 0.106,-0.984 0.255,-1.352 0.819,-1.352 h 2.35 c 0.409,0 0.509,-0.155 0.509,-0.465 v -0.884 c 0,-0.363 -0.1,-0.52 -0.458,-0.52 -0.409,0 -2.761,0.157 -4.903,0.157 -2.964,-0.002 -4.954,-0.161 -5.517,-0.161 -0.256,0 -0.41,0.109 -0.41,0.419 v 1.037 c 0,0.315 0.154,0.417 0.515,0.417 h 2.5 c 0.56,0 0.762,0.209 0.818,1.041 0.05,1.558 0.05,3.171 0.05,4.73 z" /></g><g
           transform="translate(215.6659,58.3736)"
           id="g63"><path
             id="path65"
             style="fill:#231f20;fill-opacity:1;fill-rule:nonzero;stroke:none"
             d="M 0,0 C 0,1.302 1.072,2.703 3.115,2.703 4.901,2.705 5.772,1.303 5.772,0.155 5.772,-1.193 4.854,-2.703 2.81,-2.703 1.686,-2.703 0,-1.664 0,0" /></g><g
           transform="translate(145.6819,37.5922)"
           id="g67"><path
             id="path69"
             style="fill:#231f20;fill-opacity:1;fill-rule:nonzero;stroke:none"
             d="m 0,0 c 0,-3.899 1.733,-4.577 2.656,-4.577 1.177,0 2.658,0.209 3.369,0.68 0.257,0.154 0.46,0.102 0.614,-0.106 L 6.896,-4.468 C 7.047,-4.676 6.947,-4.884 6.79,-5.042 6.282,-5.562 4.186,-7.123 1.122,-7.123 c -2.503,0 -4.953,2.446 -4.953,4.419 0,2.133 0.157,6.71 0.157,7.436 v 1.143 c 0,0.937 0.045,4.419 0.1,6.602 h -3.118 c -0.459,0 -0.766,0.208 -0.766,0.626 0,0.415 0.307,0.571 0.919,0.934 1.227,0.727 5.158,4.783 5.824,6.551 0.149,0.415 0.408,0.519 0.715,0.519 0.407,0 0.512,-0.365 0.512,-0.78 L 0.253,15.18 h 7.101 c 0.304,0 0.46,-0.26 0.355,-0.467 L 7.201,12.896 C 7.146,12.633 7.047,12.481 6.74,12.481 L 0.155,12.477 C 0.049,10.086 0,7.592 0,5.199 Z" /></g><g
           transform="translate(158.1915,44.9234)"
           id="g71"><path
             id="path73"
             style="fill:#231f20;fill-opacity:1;fill-rule:nonzero;stroke:none"
             d="m 0,0 c -0.103,-0.465 -0.155,-1.3 -0.155,-2.495 0,-5.095 3.17,-8.939 7.255,-8.939 3.115,0 5.31,1.819 6.179,3.534 0.102,0.207 0.306,0.311 0.46,0.26 L 14.4,-8.006 c 0.159,-0.05 0.256,-0.207 0,-0.778 -0.918,-2.081 -3.574,-5.667 -8.118,-5.667 -2.912,0 -6.127,0.882 -8.02,3.693 -1.787,2.649 -2.245,4.572 -2.245,8.211 0,2.029 0.51,5.51 3.213,8.267 2.197,2.285 4.752,2.756 7.306,2.756 5.874,10e-4 7.507,-5.615 7.507,-7.643 0,-0.728 -0.612,-0.831 -1.43,-0.831 z m 8.119,1.561 c 0.97,0 1.376,0.259 1.376,0.726 0,1.199 -0.609,4.628 -3.93,4.628 -2.247,0 -4.388,-1.51 -5.363,-5.356 z" /></g><g
           transform="translate(178.0025,44.925)"
           id="g75"><path
             id="path77"
             style="fill:#231f20;fill-opacity:1;fill-rule:nonzero;stroke:none"
             d="M 0,0 C 0,2.651 -0.409,3.172 -1.837,3.951 L -2.809,4.47 c -0.304,0.104 -0.408,0.156 -0.408,0.367 v 0.312 c 0,0.207 0.104,0.307 0.408,0.466 L 2.247,8.266 C 2.553,8.422 2.756,8.475 2.961,8.475 3.269,8.475 3.32,8.163 3.32,7.851 L 3.572,4.262 H 3.78 c 1.53,2.392 3.932,4.524 6.129,4.524 1.736,0 2.602,-1.089 2.602,-2.287 0,-1.506 -1.226,-2.547 -2.146,-2.547 C 9.808,3.952 9.298,4.16 8.887,4.367 8.478,4.626 7.864,4.781 7.2,4.781 6.383,4.781 5.057,4.262 4.187,2.598 3.883,2.031 3.676,1.091 3.68,0.935 V -9.981 c 0,-1.61 0.358,-2.131 1.428,-2.131 h 2.401 c 0.308,0 0.359,-0.157 0.359,-0.468 v -0.938 c 0,-0.311 -0.051,-0.468 -0.255,-0.468 -0.308,0 -2.657,0.157 -5.417,0.157 -3.163,0 -5.309,-0.157 -5.617,-0.157 -0.204,0 -0.304,0.105 -0.304,0.522 v 0.884 c 0,0.364 0.1,0.468 0.563,0.468 h 1.987 c 0.767,0 1.127,0.311 1.127,0.986 C 0,-9.41 0,-7.59 0,-4.886 Z" /></g><g
           transform="translate(192.6061,59.1196)"
           id="g79"><path
             id="path81"
             style="fill:#231f20;fill-opacity:1;fill-rule:nonzero;stroke:none"
             d="M 0,0 C 0,3.482 -0.562,4.211 -2.402,4.835 L -2.911,4.991 C -3.472,5.147 -3.572,5.25 -3.572,5.407 v 0.414 c 0,0.158 0.1,0.26 0.407,0.415 1.479,0.678 4.137,2.028 5.414,2.86 0.357,0.263 0.764,0.47 1.068,0.47 0.357,0 0.46,-0.263 0.41,-0.886 C 3.674,8.264 3.678,2.339 3.678,-2.288 V -8.32 c 1.634,1.613 4.543,2.6 7.046,2.6 4.495,0.002 9.348,-3.69 9.348,-11.122 0,-6.084 -4.799,-11.802 -10.625,-11.802 -2.856,0 -4.852,0.622 -6.022,1.35 l -2.046,-1.144 c -0.2,-0.158 -0.357,-0.208 -0.665,-0.158 l -0.612,0.158 c -0.201,0.05 -0.258,0.155 -0.201,0.416 0.101,0.728 0.101,5.042 0.101,8.836 z m 3.68,-16.844 c 0,-4.317 0.155,-5.874 0.765,-7.538 0.51,-1.248 2.658,-2.599 4.85,-2.599 3.065,0 6.845,2.128 6.845,8.941 0,5.043 -2.606,9.825 -7.607,9.825 -1.896,0 -3.733,-0.675 -4.855,-1.873 z" /></g><g
           transform="translate(4.5511,63.6237)"
           id="g83"><path
             id="path85"
             style="fill:#a32136;fill-opacity:1;fill-rule:nonzero;stroke:none"
             d="m 0,0 c 0,1.79 -0.415,2.63 -1.759,2.63 h -2.378 c -0.312,0 -0.414,0.108 -0.414,0.476 v 1.213 c 0,0.312 0.102,0.417 0.514,0.417 0.52,0 2.999,-0.157 7.963,-0.157 4.34,0 6.826,0.157 7.445,0.157 0.309,0 0.413,-0.105 0.413,-0.365 V 3.053 C 11.784,2.738 11.68,2.63 11.371,2.63 H 9.201 C 7.647,2.63 6.719,1.687 6.665,0.581 6.616,-0.05 6.512,-3.209 6.512,-6.262 v -6.526 c 0,-2.629 0.048,-6.367 0.153,-8.049 0.158,-2.421 0.57,-4.842 1.809,-6.524 1.758,-2.419 4.548,-3.263 7.03,-3.263 2.381,0 5.275,0.945 6.928,2.524 1.965,2 3,5.053 3,8.897 v 9.471 c 0,4.206 -0.413,8.838 -0.57,10.05 -0.156,1.369 -0.983,2.312 -2.12,2.312 h -1.859 c -0.311,0 -0.414,0.16 -0.414,0.372 v 1.317 c 0,0.312 0.103,0.417 0.414,0.417 0.517,0 2.893,-0.157 6.307,-0.157 3.203,0 4.857,0.157 5.271,0.157 0.465,0 0.518,-0.157 0.518,-0.417 V 3.106 C 32.979,2.79 32.926,2.63 32.668,2.63 h -1.86 c -1.859,0 -2.071,-1.47 -2.172,-2.049 -0.101,-0.631 -0.101,-8 -0.101,-8.684 0,-0.736 -0.104,-9.892 -0.312,-11.997 -0.31,-4.316 -1.551,-7.579 -4.344,-10.103 -2.172,-1.999 -5.475,-3.265 -9.407,-3.265 -2.483,0 -5.479,0.422 -7.444,1.266 -2.997,1.262 -5.064,3.683 -6.102,7.052 C 0.203,-22.838 0,-19.365 0,-12.469 Z" /></g><g
           transform="translate(38.9804,42.6825)"
           id="g87"><path
             id="path89"
             style="fill:#a32136;fill-opacity:1;fill-rule:nonzero;stroke:none"
             d="m 0,0 c 0.205,0 0.307,-0.108 0.307,-0.422 0.104,-1.684 0.518,-3.684 1.966,-6 1.549,-2.526 4.239,-3.786 6.825,-3.786 2.791,0 6.721,1.787 6.721,6.157 0,4.841 -2.173,6.418 -7.652,8.522 -1.655,0.632 -5.067,2.105 -7.55,4.42 -1.756,1.685 -2.581,4.315 -2.581,7.527 0,2.946 1.136,5.367 3.617,7.366 2.069,1.789 4.342,2.527 7.34,2.527 3.412,0 5.479,-0.843 6.512,-1.263 0.52,-0.211 0.827,-0.108 1.086,0.157 l 0.674,0.685 c 0.208,0.21 0.412,0.314 0.722,0.314 0.312,0 0.414,-0.314 0.414,-0.843 0,-0.841 0.827,-8.208 0.827,-8.732 0,-0.211 -0.103,-0.316 -0.309,-0.372 l -0.829,-0.26 c -0.205,-0.053 -0.413,0 -0.514,0.316 -0.517,1.473 -1.344,3.575 -3.208,5.577 -1.342,1.472 -2.998,2.21 -5.375,2.21 -4.135,0 -5.789,-3.368 -5.789,-5.316 0,-1.79 0.207,-3.367 1.447,-4.734 1.344,-1.368 4.241,-2.632 6.306,-3.265 2.999,-0.944 5.482,-1.999 7.444,-4.104 1.655,-1.789 2.587,-3.997 2.587,-7.523 0,-6.42 -4.137,-11.683 -10.961,-11.683 -4.24,0 -6.719,0.946 -8.788,2.528 -0.622,0.42 -0.932,0.629 -1.239,0.629 -0.312,0 -0.518,-0.42 -0.828,-0.948 -0.311,-0.525 -0.518,-0.632 -0.93,-0.632 -0.413,0 -0.622,0.319 -0.622,0.843 0.104,0.631 0.828,9.157 0.928,9.789 C -1.4,0 -1.346,0.105 -1.139,0.105 Z" /></g><g
           transform="translate(95.3261,39.5237)"
           id="g91"><path
             id="path93"
             style="fill:#a32136;fill-opacity:1;fill-rule:nonzero;stroke:none"
             d="m 0,0 c 0.155,-0.155 0.205,-0.315 0.103,-0.524 -3.102,-4.528 -8.064,-8.842 -15.405,-8.842 -6.614,0 -10.339,2 -13.541,4.947 -3.829,3.475 -5.587,9.577 -5.587,14.208 0,5.156 1.655,10.103 5.275,14.101 2.792,3.053 7.239,5.579 13.438,5.579 4.756,0 8.583,-1.474 10.443,-2.526 0.726,-0.421 0.933,-0.421 1.034,0 l 0.413,1.368 c 0.105,0.316 0.207,0.316 0.828,0.316 0.622,0 0.723,-0.105 0.723,-0.842 0,-0.947 1.035,-9.367 1.242,-10.945 0.048,-0.316 0,-0.474 -0.207,-0.526 l -0.981,-0.316 c -0.261,-0.106 -0.415,0.104 -0.568,0.526 -0.623,1.894 -1.865,4.525 -4.035,6.84 -2.273,2.211 -4.964,3.894 -8.993,3.894 -8.271,0 -11.685,-7.577 -11.685,-15.155 0,-3.263 0.931,-9.471 4.76,-13.682 3.41,-3.682 6.408,-4.105 8.89,-4.105 5.685,0 10.182,2.897 12.354,6.104 0.258,0.37 0.465,0.527 0.619,0.37 z" /></g><g
           transform="translate(105.3703,5.1964)"
           id="g95"><path
             id="path97"
             style="fill:#231f20;fill-opacity:1;fill-rule:nonzero;stroke:none"
             d="m 0,0 c -0.198,0.151 -0.298,0.201 -0.379,0.201 -0.1,0 -0.167,-0.117 -0.264,-0.285 -0.099,-0.185 -0.183,-0.202 -0.298,-0.202 -0.101,0 -0.181,0.085 -0.149,0.27 0.065,0.42 0.23,2.555 0.281,3.043 0.016,0.101 0.05,0.101 0.116,0.101 l 0.248,-0.017 c 0.066,0 0.098,-0.034 0.098,-0.134 0.018,-0.538 0.049,-1.093 0.595,-1.951 0.495,-0.791 1.405,-1.245 2.313,-1.245 0.99,0 2.248,0.623 2.248,2.135 0,1.733 -1.224,2.373 -2.546,2.843 -0.513,0.185 -1.701,0.605 -2.411,1.362 -0.545,0.555 -0.827,1.346 -0.827,2.455 0,0.841 0.513,1.666 1.023,2.153 0.598,0.572 1.422,0.808 2.315,0.808 0.942,0 1.668,-0.287 1.949,-0.421 0.149,-0.084 0.231,-0.067 0.314,0.016 l 0.214,0.203 c 0.084,0.067 0.132,0.101 0.216,0.101 0.082,0 0.131,-0.135 0.131,-0.287 0,-0.587 0.216,-2.304 0.232,-2.674 0,-0.083 -0.016,-0.117 -0.083,-0.133 L 5.138,8.291 c -0.049,-0.017 -0.082,0 -0.099,0.051 -0.133,0.487 -0.347,1.142 -1.024,1.866 -0.447,0.488 -1.025,0.724 -1.8,0.724 -1.472,0 -2,-1.11 -2,-1.968 C 0.215,8.492 0.314,7.937 0.727,7.5 1.206,7.012 2.131,6.643 2.61,6.492 3.75,6.121 4.676,5.835 5.27,5.095 5.699,4.574 5.997,3.919 5.997,2.808 5.997,0.824 4.809,-0.875 2.627,-0.875 1.47,-0.875 0.661,-0.522 0,0" /></g><g
           transform="translate(113.584,8.6433)"
           id="g99"><path
             id="path101"
             style="fill:#231f20;fill-opacity:1;fill-rule:nonzero;stroke:none"
             d="m 0,0 c 0,-0.908 0.395,-1.933 0.842,-2.555 0.546,-0.723 1.241,-0.858 1.801,-0.858 0.827,0 1.256,0.185 1.817,0.723 0.034,0.033 0.084,0.05 0.132,0 l 0.166,-0.168 c 0.066,-0.067 0.082,-0.117 0,-0.22 -0.48,-0.554 -1.536,-1.193 -2.661,-1.193 -0.875,0 -1.799,0.201 -2.559,1.177 -0.611,0.823 -0.744,1.531 -0.744,2.287 0,1.968 1.355,3.952 3.535,3.952 1.719,0 2.247,-1.008 2.247,-1.363 C 4.56,1.397 4.312,1.194 3.964,1.194 3.585,1.194 3.304,1.413 3.056,1.867 2.693,2.557 2.346,2.607 1.95,2.607 1.007,2.607 0,1.732 0,0" /></g><g
           transform="translate(120.0974,13.7394)"
           id="g103"><path
             id="path105"
             style="fill:#231f20;fill-opacity:1;fill-rule:nonzero;stroke:none"
             d="m 0,0 c 0,1.026 -0.199,1.211 -0.793,1.413 l -0.28,0.101 c -0.1,0.033 -0.116,0.05 -0.116,0.1 v 0.152 c 0,0.067 0.05,0.084 0.197,0.168 L 0.727,2.858 C 0.86,2.927 0.975,2.994 1.108,2.994 1.206,2.994 1.272,2.858 1.24,2.573 1.206,2.287 1.189,-1.126 1.189,-1.967 v -1.077 h 0.083 c 0.577,0.706 1.538,1.093 2.265,1.093 0.693,0 1.171,-0.219 1.634,-0.673 0.743,-0.706 0.711,-1.564 0.711,-2.472 v -0.958 c 0,-0.942 0.032,-1.985 0.032,-2.304 0,-0.201 0.265,-0.252 0.612,-0.252 h 0.28 c 0.133,0 0.181,-0.034 0.181,-0.152 v -0.253 c 0,-0.134 -0.032,-0.201 -0.13,-0.201 -0.116,0 -0.645,0.05 -1.586,0.05 -0.811,0 -1.405,-0.05 -1.553,-0.05 -0.117,0 -0.149,0.05 -0.149,0.184 v 0.288 c 0,0.083 0.016,0.134 0.115,0.134 h 0.38 c 0.28,0 0.612,0.033 0.627,0.318 0.017,0.236 0,1.128 0,1.665 v 1.363 c 0,0.942 -0.064,1.615 -0.545,2.069 -0.329,0.319 -0.675,0.471 -1.09,0.471 -0.479,0 -1.073,-0.168 -1.536,-0.707 C 1.37,-3.616 1.189,-3.952 1.189,-4.254 v -3.667 c 0,-0.538 0.051,-0.689 0.363,-0.689 h 0.497 c 0.115,0 0.181,-0.034 0.181,-0.134 v -0.288 c 0,-0.117 -0.032,-0.184 -0.133,-0.184 -0.13,0 -0.808,0.05 -1.568,0.05 -0.827,0 -1.455,-0.05 -1.602,-0.05 -0.066,0 -0.116,0.05 -0.116,0.168 v 0.304 c 0,0.117 0.067,0.134 0.248,0.134 h 0.347 c 0.265,0 0.512,0.067 0.546,0.268 C 0,-8.022 0,-6.172 0,-5.079 Z" /></g><g
           transform="translate(133.6445,8.2403)"
           id="g107"><path
             id="path109"
             style="fill:#231f20;fill-opacity:1;fill-rule:nonzero;stroke:none"
             d="m 0,0 c 0,1.866 -1.336,3.044 -2.179,3.044 -0.447,0 -0.876,-0.102 -1.272,-0.539 -0.646,-0.673 -0.877,-1.363 -0.877,-2.64 0,-0.941 0.099,-1.58 0.63,-2.355 0.377,-0.554 0.858,-0.874 1.635,-0.874 C -0.808,-3.364 0,-1.8 0,0 m -4.772,-2.708 c -0.761,0.925 -0.91,1.548 -0.91,2.741 0,0.858 0.446,1.934 1.421,2.707 0.859,0.674 1.667,0.808 2.213,0.808 0.909,0 1.817,-0.47 2.313,-0.975 0.744,-0.773 1.124,-1.648 1.124,-2.741 0,-1.833 -1.62,-3.7 -3.651,-3.7 -0.793,0 -1.817,0.319 -2.51,1.16" /></g><g
           transform="translate(141.8738,8.2403)"
           id="g111"><path
             id="path113"
             style="fill:#231f20;fill-opacity:1;fill-rule:nonzero;stroke:none"
             d="m 0,0 c 0,1.866 -1.339,3.044 -2.181,3.044 -0.446,0 -0.876,-0.102 -1.271,-0.539 -0.645,-0.673 -0.877,-1.363 -0.877,-2.64 0,-0.941 0.1,-1.58 0.628,-2.355 0.38,-0.554 0.86,-0.874 1.635,-0.874 C -0.809,-3.364 0,-1.8 0,0 m -4.775,-2.708 c -0.76,0.925 -0.908,1.548 -0.908,2.741 0,0.858 0.445,1.934 1.42,2.707 0.859,0.674 1.669,0.808 2.215,0.808 0.909,0 1.817,-0.47 2.312,-0.975 0.744,-0.773 1.124,-1.648 1.124,-2.741 0,-1.833 -1.619,-3.7 -3.651,-3.7 -0.794,0 -1.819,0.319 -2.512,1.16" /></g><g
           transform="translate(146.6159,9.5854)"
           id="g115"><path
             id="path117"
             style="fill:#231f20;fill-opacity:1;fill-rule:nonzero;stroke:none"
             d="m 0,0 c 0,-0.875 0,-3.414 0.018,-3.936 0.015,-0.285 0.081,-0.52 0.429,-0.52 h 0.742 c 0.15,0 0.183,-0.051 0.183,-0.151 v -0.287 c 0,-0.101 -0.033,-0.169 -0.1,-0.169 -0.115,0 -0.842,0.051 -1.866,0.051 -1.059,0 -1.72,-0.051 -1.867,-0.051 -0.082,0 -0.115,0.068 -0.115,0.169 v 0.287 c 0,0.117 0.033,0.151 0.214,0.151 h 0.793 c 0.182,0 0.346,0.117 0.363,0.42 0.017,0.521 0.017,3.413 0.017,4.388 v 1.061 c 0,1.194 -0.017,2.724 -0.05,3.162 -0.033,0.57 -0.297,0.84 -0.827,1.008 l -0.328,0.118 c -0.083,0.034 -0.101,0.05 -0.101,0.084 V 5.92 c 0,0.05 0.05,0.084 0.15,0.117 0.577,0.27 1.322,0.572 1.933,0.975 0.147,0.101 0.247,0.136 0.346,0.136 0.115,0 0.149,-0.085 0.133,-0.303 C 0.049,5.92 0,2.422 0,1.497 Z" /></g><g
           transform="translate(157.867,8.2403)"
           id="g119"><path
             id="path121"
             style="fill:#231f20;fill-opacity:1;fill-rule:nonzero;stroke:none"
             d="m 0,0 c 0,1.866 -1.336,3.044 -2.18,3.044 -0.447,0 -0.876,-0.102 -1.271,-0.539 -0.646,-0.673 -0.877,-1.363 -0.877,-2.64 0,-0.941 0.099,-1.58 0.628,-2.355 0.379,-0.554 0.86,-0.874 1.637,-0.874 C -0.809,-3.364 0,-1.8 0,0 m -4.772,-2.708 c -0.761,0.925 -0.91,1.548 -0.91,2.741 0,0.858 0.445,1.934 1.421,2.707 0.859,0.674 1.667,0.808 2.212,0.808 0.909,0 1.817,-0.47 2.314,-0.975 0.744,-0.773 1.124,-1.648 1.124,-2.741 0,-1.833 -1.621,-3.7 -3.652,-3.7 -0.793,0 -1.816,0.319 -2.509,1.16" /></g><g
           transform="translate(161.6022,10.7795)"
           id="g123"><path
             id="path125"
             style="fill:#231f20;fill-opacity:1;fill-rule:nonzero;stroke:none"
             d="m 0,0 h -1.14 c -0.083,0 -0.116,0.034 -0.083,0.185 l 0.067,0.505 c 0.016,0.101 0.066,0.117 0.197,0.117 L 0,0.807 V 1.126 C 0,2.791 0.462,3.885 1.107,4.625 1.982,5.6 2.89,5.954 3.817,5.954 4.592,5.954 5.319,5.651 5.319,5.011 5.319,4.608 4.89,4.289 4.626,4.289 4.46,4.289 4.295,4.321 4.163,4.389 4.015,4.473 3.833,4.692 3.768,4.777 3.551,5.045 3.32,5.163 3.007,5.163 2.577,5.163 2.131,5.045 1.768,4.574 1.156,3.784 1.189,2.321 1.189,1.143 V 0.807 h 1.999 c 0.116,0 0.132,-0.101 0.116,-0.168 L 3.222,0.084 C 3.204,0.016 3.138,0 3.007,0 H 1.189 v -1.497 c 0,-1.984 0,-3.532 0.017,-3.717 0.034,-0.286 0.083,-0.437 0.43,-0.437 h 0.941 c 0.15,0 0.181,-0.033 0.181,-0.134 v -0.269 c 0,-0.135 -0.031,-0.202 -0.115,-0.202 -0.099,0 -0.71,0.051 -1.982,0.051 -0.909,0 -1.751,-0.051 -1.884,-0.051 -0.099,0 -0.131,0.034 -0.131,0.118 v 0.37 c 0,0.084 0.032,0.117 0.165,0.117 h 0.794 c 0.312,0 0.377,0.202 0.395,0.589 V -1.9 Z" /></g><g
           transform="translate(173.0856,11.0155)"
           id="g127"><path
             id="path129"
             style="fill:#231f20;fill-opacity:1;fill-rule:nonzero;stroke:none"
             d="m 0,0 c 0.132,0 1.9,0.067 2.097,0.1 0.48,0.085 0.612,0.219 0.76,0.74 0.051,0.168 0.117,0.505 0.132,0.825 0,0.083 0.049,0.117 0.115,0.117 L 3.519,1.765 C 3.601,1.765 3.635,1.698 3.617,1.63 3.568,1.345 3.568,-0.035 3.568,-0.286 c 0,-0.589 0.067,-1.396 0.1,-1.749 0,-0.085 -0.033,-0.118 -0.1,-0.135 L 3.204,-2.22 C 3.122,-2.238 3.09,-2.188 3.072,-2.068 3.038,-1.85 2.94,-1.464 2.89,-1.279 2.792,-0.925 2.61,-0.673 2.181,-0.623 1.404,-0.539 0.264,-0.539 0,-0.539 v -1.042 c 0,-0.909 0.032,-2.539 0.032,-2.876 0.017,-0.874 0.429,-1.211 0.943,-1.312 0.33,-0.067 0.808,-0.117 1.221,-0.117 0.282,0 1.108,0.016 1.454,0.05 0.281,0.033 1.008,0.218 1.439,0.589 0.196,0.167 1.123,1.379 1.354,1.766 0.049,0.083 0.099,0.151 0.198,0.101 l 0.263,-0.152 c 0.083,-0.05 0.083,-0.101 0.034,-0.236 L 6.062,-6.24 c -0.05,-0.151 -0.165,-0.253 -0.363,-0.253 -0.082,0 -0.446,0.018 -1.438,0.035 -0.99,0 -2.593,0.016 -5.17,0.016 -0.611,0 -1.073,-0.016 -1.405,-0.016 -0.346,-0.017 -0.562,-0.035 -0.71,-0.035 -0.1,0 -0.149,0.035 -0.149,0.119 v 0.454 c 0,0.067 0.049,0.084 0.166,0.084 h 0.662 c 0.758,0 0.825,0.118 0.825,0.74 v 3.986 1.648 c 0,1.395 -0.034,3.498 -0.05,3.666 C -1.636,4.743 -1.8,4.86 -2.413,4.86 h -0.594 c -0.083,0 -0.131,0.017 -0.131,0.118 v 0.453 c 0,0.051 0.032,0.085 0.114,0.085 0.364,0 0.941,-0.051 2.031,-0.051 h 0.727 c 1.636,0 3.273,0.017 4.908,0.017 0.265,0 0.577,0.034 0.661,0.034 0.082,0 0.115,-0.034 0.132,-0.085 C 5.502,5.196 6.228,2.892 6.278,2.724 6.294,2.656 6.294,2.606 6.228,2.573 L 5.98,2.438 C 5.931,2.405 5.865,2.455 5.848,2.488 5.816,2.555 4.592,4.153 4.195,4.405 3.849,4.64 3.387,4.843 2.94,4.86 L 0,4.928 Z" /></g><g
           transform="translate(187.0849,5.4826)"
           id="g131"><path
             id="path133"
             style="fill:#231f20;fill-opacity:1;fill-rule:nonzero;stroke:none"
             d="m 0,0 c 0,-0.269 0.148,-0.353 0.364,-0.353 h 0.528 c 0.149,0 0.181,-0.051 0.181,-0.152 v -0.27 c 0,-0.117 -0.032,-0.185 -0.132,-0.185 -0.116,0 -0.627,0.051 -1.57,0.051 -0.842,0 -1.371,-0.051 -1.486,-0.051 -0.098,0 -0.132,0.051 -0.132,0.185 v 0.27 c 0,0.118 0.049,0.152 0.216,0.152 h 0.478 c 0.181,0 0.313,0.084 0.33,0.386 0.017,0.437 0.034,0.975 0.034,1.413 v 2.219 c 0,0.673 0,1.161 -0.481,1.514 -0.396,0.303 -0.791,0.303 -1.206,0.303 -0.263,0 -0.842,-0.118 -1.336,-0.656 C -4.544,4.455 -4.593,4.003 -4.593,3.682 V 0.201 c 0,-0.453 0.049,-0.554 0.395,-0.554 h 0.413 c 0.133,0 0.167,-0.051 0.167,-0.169 v -0.286 c 0,-0.101 -0.034,-0.152 -0.115,-0.152 -0.116,0 -0.563,0.051 -1.44,0.051 -0.841,0 -1.37,-0.051 -1.468,-0.051 -0.084,0 -0.116,0.051 -0.116,0.152 v 0.303 c 0,0.101 0.032,0.152 0.165,0.152 h 0.479 c 0.213,0 0.33,0.051 0.33,0.336 v 3.935 c 0,0.505 -0.264,0.79 -0.677,0.992 l -0.132,0.068 c -0.115,0.05 -0.133,0.1 -0.133,0.15 v 0.085 c 0,0.084 0.066,0.134 0.15,0.167 l 1.419,0.808 c 0.133,0.067 0.231,0.117 0.298,0.117 0.082,0 0.115,-0.067 0.133,-0.201 L -4.61,5.078 h 0.034 c 0.479,0.605 1.437,1.227 2.262,1.227 0.497,0 1.007,-0.1 1.405,-0.369 C -0.413,5.6 0,4.758 0,4.338 Z" /></g><g
           transform="translate(193.4627,9.4342)"
           id="g135"><path
             id="path137"
             style="fill:#231f20;fill-opacity:1;fill-rule:nonzero;stroke:none"
             d="m 0,0 c 0,0.74 -0.148,1.176 -0.447,1.514 -0.214,0.217 -0.546,0.37 -0.792,0.37 -0.381,0 -0.778,-0.068 -1.173,-0.471 -0.528,-0.572 -0.595,-1.346 -0.595,-1.985 0,-0.572 0.183,-1.093 0.529,-1.463 0.297,-0.286 0.595,-0.42 0.992,-0.42 C -0.363,-2.455 0,-1.059 0,0 m 1.536,-7.164 c 0,0.992 -0.743,1.749 -2.396,1.631 l -1.584,-0.119 c -0.513,-0.133 -1.324,-0.704 -1.324,-1.614 0,-0.419 0.315,-0.923 0.646,-1.16 0.545,-0.386 1.139,-0.47 2.312,-0.47 0.611,0 2.429,0.437 2.346,1.732 m -5.451,-1.732 c -0.595,0.37 -0.843,0.806 -0.843,1.362 0,0.942 0.941,1.665 1.734,2.017 v 0.068 c -0.693,0.152 -1.107,0.672 -1.107,1.178 0,0.807 0.908,1.379 1.488,1.597 v 0.034 c -0.646,0.286 -1.537,1.059 -1.537,2.556 0,1.093 0.957,2.438 2.824,2.438 1.257,0 1.918,-0.773 2.083,-0.975 0.446,0.32 1.007,0.656 1.553,0.656 0.544,0 0.809,-0.37 0.775,-0.706 0,-0.32 -0.263,-0.623 -0.644,-0.623 -0.28,0 -0.445,0.135 -0.577,0.252 -0.1,0.068 -0.215,0.152 -0.348,0.152 -0.116,0 -0.313,0 -0.528,-0.101 0.131,-0.336 0.248,-0.707 0.248,-1.278 0,-0.656 -0.183,-1.295 -0.612,-1.816 -0.429,-0.489 -1.37,-0.841 -1.916,-0.841 -0.364,0 -0.595,0.017 -0.842,0.085 -0.332,-0.136 -0.877,-0.473 -0.877,-0.943 0,-0.69 0.828,-0.639 1.933,-0.572 1.356,0.067 2.181,-0.083 2.842,-0.606 0.712,-0.538 0.793,-1.21 0.809,-1.614 0,-0.791 -0.28,-1.446 -1.107,-2.068 -0.429,-0.32 -1.419,-0.79 -2.824,-0.79 -0.793,0 -1.734,0.083 -2.527,0.538" /></g><g
           transform="translate(197.4282,14.5971)"
           id="g139"><path
             id="path141"
             style="fill:#231f20;fill-opacity:1;fill-rule:nonzero;stroke:none"
             d="m 0,0 c 0,0.421 0.347,0.874 1.007,0.874 0.579,0 0.86,-0.453 0.86,-0.823 0,-0.437 -0.298,-0.925 -0.958,-0.925 C 0.545,-0.874 0,-0.539 0,0 m 0.745,-5.129 c 0,0.572 -0.101,0.875 -0.927,1.009 -0.116,0.016 -0.147,0.05 -0.147,0.117 v 0.151 c 0,0.05 0.031,0.086 0.115,0.118 0.528,0.203 1.155,0.471 1.783,0.824 0.133,0.069 0.216,0.101 0.314,0.101 0.084,0 0.099,-0.083 0.084,-0.202 C 1.933,-3.297 1.933,-4.356 1.933,-5.752 v -1.832 c 0,-0.657 0,-1.263 0.017,-1.448 0.032,-0.319 0.081,-0.436 0.263,-0.436 h 0.761 c 0.133,0 0.164,-0.051 0.164,-0.151 v -0.287 c 0,-0.117 -0.031,-0.168 -0.147,-0.168 -0.133,0 -0.894,0.051 -1.587,0.051 -0.957,0 -1.603,-0.051 -1.784,-0.051 -0.082,0 -0.132,0.034 -0.132,0.135 v 0.337 c 0,0.1 0.05,0.134 0.166,0.134 h 0.808 c 0.182,0 0.248,0.067 0.265,0.336 0.018,0.505 0.018,1.025 0.018,1.53 z" /></g><g
           transform="translate(208.2984,5.4826)"
           id="g143"><path
             id="path145"
             style="fill:#231f20;fill-opacity:1;fill-rule:nonzero;stroke:none"
             d="m 0,0 c 0,-0.269 0.149,-0.353 0.363,-0.353 h 0.53 c 0.148,0 0.182,-0.051 0.182,-0.152 v -0.27 c 0,-0.117 -0.034,-0.185 -0.133,-0.185 -0.115,0 -0.628,0.051 -1.569,0.051 -0.842,0 -1.373,-0.051 -1.488,-0.051 -0.098,0 -0.131,0.051 -0.131,0.185 v 0.27 c 0,0.118 0.05,0.152 0.214,0.152 h 0.479 c 0.183,0 0.314,0.084 0.332,0.386 0.015,0.437 0.032,0.975 0.032,1.413 v 2.219 c 0,0.673 0,1.161 -0.479,1.514 -0.395,0.303 -0.793,0.303 -1.206,0.303 -0.264,0 -0.842,-0.118 -1.338,-0.656 -0.33,-0.371 -0.38,-0.823 -0.38,-1.144 V 0.201 c 0,-0.453 0.05,-0.554 0.397,-0.554 h 0.413 c 0.132,0 0.164,-0.051 0.164,-0.169 v -0.286 c 0,-0.101 -0.032,-0.152 -0.116,-0.152 -0.115,0 -0.561,0.051 -1.436,0.051 -0.843,0 -1.37,-0.051 -1.471,-0.051 -0.082,0 -0.116,0.051 -0.116,0.152 v 0.303 c 0,0.101 0.034,0.152 0.165,0.152 h 0.481 c 0.214,0 0.33,0.051 0.33,0.336 v 3.935 c 0,0.505 -0.265,0.79 -0.679,0.992 l -0.132,0.068 c -0.115,0.05 -0.131,0.1 -0.131,0.15 v 0.085 c 0,0.084 0.067,0.134 0.149,0.167 l 1.421,0.808 c 0.133,0.067 0.231,0.117 0.297,0.117 0.081,0 0.115,-0.067 0.132,-0.201 l 0.116,-1.026 h 0.032 c 0.479,0.605 1.438,1.227 2.264,1.227 0.495,0 1.007,-0.1 1.403,-0.369 C -0.412,5.6 0,4.758 0,4.338 Z" /></g><g
           transform="translate(214.2145,9.5517)"
           id="g147"><path
             id="path149"
             style="fill:#231f20;fill-opacity:1;fill-rule:nonzero;stroke:none"
             d="m 0,0 c 0.314,0 0.447,0.084 0.447,0.236 0,0.387 -0.199,1.496 -1.273,1.496 C -1.553,1.732 -2.247,1.244 -2.56,0 Z m -2.627,-0.504 c -0.033,-0.152 -0.048,-0.421 -0.048,-0.808 0,-1.648 1.023,-2.892 2.346,-2.892 1.007,0 1.717,0.588 1.999,1.142 0.032,0.068 0.098,0.102 0.147,0.085 l 0.216,-0.117 c 0.049,-0.018 0.081,-0.068 0,-0.253 -0.299,-0.672 -1.157,-1.832 -2.628,-1.832 -0.941,0 -1.982,0.285 -2.593,1.192 -0.577,0.859 -0.727,1.481 -0.727,2.658 0,0.656 0.164,1.782 1.041,2.675 0.711,0.739 1.535,0.891 2.362,0.891 1.9,0 2.428,-1.816 2.428,-2.472 0,-0.237 -0.197,-0.269 -0.462,-0.269 z" /></g><g
           transform="translate(221.2533,9.5517)"
           id="g151"><path
             id="path153"
             style="fill:#231f20;fill-opacity:1;fill-rule:nonzero;stroke:none"
             d="m 0,0 c 0.314,0 0.446,0.084 0.446,0.236 0,0.387 -0.198,1.496 -1.272,1.496 -0.727,0 -1.42,-0.488 -1.734,-1.732 z m -2.627,-0.504 c -0.033,-0.152 -0.049,-0.421 -0.049,-0.808 0,-1.648 1.024,-2.892 2.347,-2.892 1.007,0 1.716,0.588 1.999,1.142 0.032,0.068 0.098,0.102 0.146,0.085 l 0.217,-0.117 c 0.049,-0.018 0.081,-0.068 0,-0.253 -0.297,-0.672 -1.158,-1.832 -2.628,-1.832 -0.941,0 -1.982,0.285 -2.593,1.192 -0.577,0.859 -0.727,1.481 -0.727,2.658 0,0.656 0.166,1.782 1.041,2.675 0.71,0.739 1.536,0.891 2.362,0.891 1.899,0 2.429,-1.816 2.429,-2.472 0,-0.237 -0.198,-0.269 -0.464,-0.269 z" /></g><g
           transform="translate(225.3684,9.0479)"
           id="g155"><path
             id="path157"
             style="fill:#231f20;fill-opacity:1;fill-rule:nonzero;stroke:none"
             d="M 0,0 C 0,0.858 -0.132,1.025 -0.595,1.278 L -0.909,1.446 C -1.007,1.48 -1.041,1.497 -1.041,1.563 v 0.102 c 0,0.066 0.034,0.1 0.132,0.15 L 0.727,2.673 C 0.825,2.724 0.892,2.74 0.959,2.74 1.056,2.74 1.073,2.64 1.073,2.539 L 1.156,1.378 h 0.066 c 0.495,0.775 1.273,1.463 1.983,1.463 0.563,0 0.843,-0.353 0.843,-0.74 C 4.048,1.614 3.65,1.278 3.352,1.278 3.171,1.278 3.007,1.345 2.874,1.413 2.741,1.497 2.544,1.547 2.329,1.547 2.066,1.547 1.636,1.378 1.354,0.84 1.255,0.655 1.189,0.352 1.189,0.302 V -3.23 c 0,-0.52 0.116,-0.689 0.464,-0.689 h 0.776 c 0.098,0 0.115,-0.051 0.115,-0.151 v -0.303 c 0,-0.101 -0.017,-0.151 -0.083,-0.151 -0.098,0 -0.859,0.05 -1.752,0.05 -1.023,0 -1.716,-0.05 -1.816,-0.05 -0.067,0 -0.099,0.034 -0.099,0.168 v 0.286 c 0,0.117 0.032,0.151 0.181,0.151 h 0.645 c 0.248,0 0.362,0.101 0.362,0.319 C 0,-3.045 0,-2.455 0,-1.581 Z" /></g><g
           transform="translate(230.5062,14.5971)"
           id="g159"><path
             id="path161"
             style="fill:#231f20;fill-opacity:1;fill-rule:nonzero;stroke:none"
             d="m 0,0 c 0,0.421 0.349,0.874 1.009,0.874 0.577,0 0.858,-0.453 0.858,-0.823 0,-0.437 -0.298,-0.925 -0.958,-0.925 C 0.545,-0.874 0,-0.539 0,0 m 0.745,-5.129 c 0,0.572 -0.099,0.875 -0.927,1.009 -0.116,0.016 -0.147,0.05 -0.147,0.117 v 0.151 c 0,0.05 0.031,0.086 0.115,0.118 0.529,0.203 1.156,0.471 1.783,0.824 0.133,0.069 0.216,0.101 0.314,0.101 0.084,0 0.1,-0.083 0.084,-0.202 C 1.933,-3.297 1.933,-4.356 1.933,-5.752 v -1.832 c 0,-0.657 0,-1.263 0.017,-1.448 0.033,-0.319 0.083,-0.436 0.265,-0.436 h 0.759 c 0.132,0 0.165,-0.051 0.165,-0.151 v -0.287 c 0,-0.117 -0.033,-0.168 -0.148,-0.168 -0.133,0 -0.891,0.051 -1.587,0.051 -0.957,0 -1.601,-0.051 -1.783,-0.051 -0.083,0 -0.133,0.034 -0.133,0.135 v 0.337 c 0,0.1 0.05,0.134 0.166,0.134 h 0.809 c 0.183,0 0.249,0.067 0.264,0.336 0.018,0.505 0.018,1.025 0.018,1.53 z" /></g><g
           transform="translate(241.3782,5.4826)"
           id="g163"><path
             id="path165"
             style="fill:#231f20;fill-opacity:1;fill-rule:nonzero;stroke:none"
             d="m 0,0 c 0,-0.269 0.148,-0.353 0.363,-0.353 h 0.529 c 0.149,0 0.182,-0.051 0.182,-0.152 v -0.27 c 0,-0.117 -0.033,-0.185 -0.133,-0.185 -0.116,0 -0.626,0.051 -1.569,0.051 -0.842,0 -1.372,-0.051 -1.486,-0.051 -0.101,0 -0.133,0.051 -0.133,0.185 v 0.27 c 0,0.118 0.05,0.152 0.213,0.152 h 0.48 c 0.181,0 0.314,0.084 0.331,0.386 0.017,0.437 0.033,0.975 0.033,1.413 v 2.219 c 0,0.673 0,1.161 -0.48,1.514 -0.396,0.303 -0.793,0.303 -1.205,0.303 -0.263,0 -0.843,-0.118 -1.34,-0.656 C -4.543,4.455 -4.592,4.003 -4.592,3.682 V 0.201 c 0,-0.453 0.049,-0.554 0.395,-0.554 h 0.413 c 0.133,0 0.166,-0.051 0.166,-0.169 v -0.286 c 0,-0.101 -0.033,-0.152 -0.116,-0.152 -0.117,0 -0.561,0.051 -1.438,0.051 -0.842,0 -1.37,-0.051 -1.469,-0.051 -0.083,0 -0.117,0.051 -0.117,0.152 v 0.303 c 0,0.101 0.034,0.152 0.166,0.152 h 0.479 c 0.214,0 0.33,0.051 0.33,0.336 v 3.935 c 0,0.505 -0.263,0.79 -0.677,0.992 l -0.132,0.068 c -0.115,0.05 -0.132,0.1 -0.132,0.15 v 0.085 c 0,0.084 0.066,0.134 0.148,0.167 l 1.42,0.808 c 0.134,0.067 0.232,0.117 0.298,0.117 0.083,0 0.116,-0.067 0.133,-0.201 L -4.61,5.078 h 0.033 c 0.48,0.605 1.439,1.227 2.263,1.227 0.497,0 1.007,-0.1 1.405,-0.369 C -0.412,5.6 0,4.758 0,4.338 Z" /></g><g
           transform="translate(247.7561,9.4342)"
           id="g167"><path
             id="path169"
             style="fill:#231f20;fill-opacity:1;fill-rule:nonzero;stroke:none"
             d="m 0,0 c 0,0.74 -0.148,1.176 -0.445,1.514 -0.216,0.217 -0.546,0.37 -0.794,0.37 -0.38,0 -0.775,-0.068 -1.172,-0.471 -0.529,-0.572 -0.596,-1.346 -0.596,-1.985 0,-0.572 0.183,-1.093 0.53,-1.463 0.296,-0.286 0.594,-0.42 0.991,-0.42 C -0.364,-2.455 0,-1.059 0,0 m 1.537,-7.164 c 0,0.992 -0.744,1.749 -2.396,1.631 l -1.584,-0.119 c -0.514,-0.133 -1.322,-0.704 -1.322,-1.614 0,-0.419 0.311,-0.923 0.643,-1.16 0.545,-0.386 1.14,-0.47 2.313,-0.47 0.61,0 2.428,0.437 2.346,1.732 m -5.452,-1.732 c -0.594,0.37 -0.843,0.806 -0.843,1.362 0,0.942 0.941,1.665 1.735,2.017 v 0.068 c -0.693,0.152 -1.106,0.672 -1.106,1.178 0,0.807 0.907,1.379 1.486,1.597 v 0.034 c -0.644,0.286 -1.536,1.059 -1.536,2.556 0,1.093 0.957,2.438 2.826,2.438 1.254,0 1.915,-0.773 2.08,-0.975 0.447,0.32 1.007,0.656 1.553,0.656 0.544,0 0.81,-0.37 0.777,-0.706 0,-0.32 -0.265,-0.623 -0.645,-0.623 -0.281,0 -0.445,0.135 -0.577,0.252 C 1.734,1.026 1.619,1.11 1.488,1.11 1.37,1.11 1.174,1.11 0.959,1.009 1.09,0.673 1.206,0.302 1.206,-0.269 c 0,-0.656 -0.181,-1.295 -0.611,-1.816 -0.43,-0.489 -1.371,-0.841 -1.916,-0.841 -0.364,0 -0.595,0.017 -0.842,0.085 -0.332,-0.136 -0.878,-0.473 -0.878,-0.943 0,-0.69 0.828,-0.639 1.934,-0.572 1.355,0.067 2.181,-0.083 2.841,-0.606 0.713,-0.538 0.793,-1.21 0.81,-1.614 0,-0.791 -0.28,-1.446 -1.107,-2.068 -0.43,-0.32 -1.419,-0.79 -2.825,-0.79 -0.793,0 -1.734,0.083 -2.527,0.538" /></g></g></g></g></svg>